{
  "asset": {
    "version": "2.0",
    "generator": "THREE.GLTFExporter"
  },
  "scenes": [
    {
      "nodes": [
        0
      ]
    }
  ],
  "scene": 0,
  "nodes": [
    {
      "children": [
        9
      ],
      "matrix": [
        0.01,
        0,
        0,
        0,
        0,
        0.01,
        0,
        0,
        0,
        0,
        0.01,
        0,
        0,
        0,
        0,
        1
      ]
    },
    {
      "matrix": [
        2.220446049250313e-16,
        -2.220446049250313e-16,
        1,
        0,
        1,
        0,
        -2.220446049250313e-16,
        0,
        0,
        1,
        2.220446049250313e-16,
        0,
        617.6789048077335,
        1,
        -2010.6150174844224,
        1
      ],
      "name": "Rectangle",
      "mesh": 0
    },
    {
      "matrix": [
        0.8294315854971633,
        0.5559211057592953,
        -0.054726311323012866,
        0,
        -0.5502640464929489,
        0.8299815072559709,
        0.09132456816384193,
        0,
        0.09619108127506681,
        -0.04563355984874533,
        0.99431627468259,
        0,
        5.559493077830478,
        2.6500712615123225,
        44.524677011089125,
        1
      ],
      "name": "Cube 2",
      "mesh": 1
    },
    {
      "matrix": [
        0.8358429412723141,
        0.5436609135309245,
        0.07615371707255192,
        0,
        -0.5487930499366073,
        0.8310051843607009,
        0.09086568057804376,
        0,
        -0.013884014783960064,
        -0.11774206837131786,
        0.9929471483765437,
        0,
        7.1153011255681164,
        3.810196232301733,
        42.20298845102714,
        1
      ],
      "name": "Cube",
      "mesh": 2
    },
    {
      "matrix": [
        0.5528121685235379,
        0.004134825791199215,
        0.003592039309069206,
        0,
        -0.004077579971057333,
        0.5527551013201515,
        -0.008744398466863625,
        0,
        -0.0036568938050065003,
        0.008717475474246445,
        0.5527584698107033,
        0,
        -0.028873873109157788,
        0.02046727666703418,
        4.42010747031856,
        1
      ],
      "name": "heart_lowpoly 3",
      "mesh": 3
    },
    {
      "name": "Hurted Heart",
      "children": [
        2,
        3,
        4
      ]
    },
    {
      "matrix": [
        0.6782844626542883,
        0.5767679584694602,
        -0.45526795385218405,
        0,
        -0.6477958779481674,
        0.7618139540027886,
        0,
        0,
        0.34682948005489145,
        0.2949207038673413,
        0.8903544744624163,
        0,
        0,
        0,
        0,
        1
      ],
      "name": "Directional Light",
      "extensions": {
        "KHR_lights_punctual": {
          "light": 0
        }
      }
    },
    {
      "matrix": [
        0.8744791374132028,
        -1.4120058483557685e-8,
        0.4850631280865003,
        0,
        0.1549851510970917,
        0.947581083159502,
        -0.27940954489365005,
        0,
        -0.45963664036766305,
        0.3195154000017289,
        0.828639890418789,
        0,
        -512.0230727015901,
        294.00706305415787,
        879.5051170818161,
        1
      ],
      "camera": 0
    },
    {
      "matrix": [
        1,
        0,
        0,
        0,
        0,
        1,
        0,
        0,
        0,
        0,
        1,
        0,
        0,
        1,
        0,
        1
      ],
      "name": "Default Ambient Light"
    },
    {
      "name": "Scene",
      "children": [
        1,
        5,
        6,
        7,
        8
      ]
    }
  ],
  "bufferViews": [
    {
      "buffer": 0,
      "byteOffset": 0,
      "byteLength": 48,
      "target": 34962,
      "byteStride": 12
    },
    {
      "buffer": 0,
      "byteOffset": 48,
      "byteLength": 48,
      "target": 34962,
      "byteStride": 12
    },
    {
      "buffer": 0,
      "byteOffset": 96,
      "byteLength": 32,
      "target": 34962,
      "byteStride": 8
    },
    {
      "buffer": 0,
      "byteOffset": 128,
      "byteLength": 24,
      "target": 34963
    },
    {
      "buffer": 0,
      "byteOffset": 152,
      "byteLength": 4608,
      "target": 34962,
      "byteStride": 12
    },
    {
      "buffer": 0,
      "byteOffset": 4760,
      "byteLength": 4608,
      "target": 34962,
      "byteStride": 12
    },
    {
      "buffer": 0,
      "byteOffset": 9368,
      "byteLength": 2304,
      "target": 34963
    },
    {
      "buffer": 0,
      "byteOffset": 11672,
      "byteLength": 7680,
      "target": 34962,
      "byteStride": 12
    },
    {
      "buffer": 0,
      "byteOffset": 19352,
      "byteLength": 7680,
      "target": 34962,
      "byteStride": 12
    },
    {
      "buffer": 0,
      "byteOffset": 27032,
      "byteLength": 3840,
      "target": 34963
    },
    {
      "buffer": 0,
      "byteOffset": 30872,
      "byteLength": 21504,
      "target": 34962,
      "byteStride": 12
    },
    {
      "buffer": 0,
      "byteOffset": 52376,
      "byteLength": 21504,
      "target": 34962,
      "byteStride": 12
    },
    {
      "buffer": 0,
      "byteOffset": 73880,
      "byteLength": 10752,
      "target": 34963
    }
  ],
  "buffers": [
    {
      "byteLength": 84632,
      "uri": "data:application/octet-stream;base64,"
    }
  ],
  "accessors": [
    {
      "bufferView": 0,
      "componentType": 5126,
      "count": 4,
      "max": [
        50,
        50,
        0
      ],
      "min": [
        -50,
        -50,
        0
      ],
      "type": "VEC3"
    },
    {
      "bufferView": 1,
      "componentType": 5126,
      "count": 4,
      "max": [
        0,
        0,
        1
      ],
      "min": [
        0,
        0,
        1
      ],
      "type": "VEC3"
    },
    {
      "bufferView": 2,
      "componentType": 5126,
      "count": 4,
      "max": [
        1,
        1
      ],
      "min": [
        0,
        0
      ],
      "type": "VEC2"
    },
    {
      "bufferView": 3,
      "componentType": 5125,
      "count": 6,
      "max": [
        3
      ],
      "min": [
        0
      ],
      "type": "SCALAR"
    },
    {
      "bufferView": 4,
      "componentType": 5126,
      "count": 384,
      "max": [
        14.5,
        14.039999008178711,
        7.742459297180176
      ],
      "min": [
        -14.5,
        -14.039999008178711,
        -2.5
      ],
      "type": "VEC3"
    },
    {
      "bufferView": 5,
      "componentType": 5126,
      "count": 384,
      "max": [
        1,
        1,
        1
      ],
      "min": [
        -1,
        -1,
        -1
      ],
      "type": "VEC3"
    },
    {
      "bufferView": 6,
      "componentType": 5125,
      "count": 576,
      "max": [
        383
      ],
      "min": [
        0
      ],
      "type": "SCALAR"
    },
    {
      "bufferView": 7,
      "componentType": 5126,
      "count": 640,
      "max": [
        44.49425506591797,
        19,
        5.5
      ],
      "min": [
        -46.38677215576172,
        -19,
        -14.566882133483887
      ],
      "type": "VEC3"
    },
    {
      "bufferView": 8,
      "componentType": 5126,
      "count": 640,
      "max": [
        0.9531223773956299,
        1,
        1
      ],
      "min": [
        -1,
        -1,
        -1
      ],
      "type": "VEC3"
    },
    {
      "bufferView": 9,
      "componentType": 5125,
      "count": 960,
      "max": [
        639
      ],
      "min": [
        0
      ],
      "type": "SCALAR"
    },
    {
      "bufferView": 10,
      "componentType": 5126,
      "count": 1792,
      "max": [
        135.57443237304688,
        120.7027587890625,
        69.1912612915039
      ],
      "min": [
        -135.57443237304688,
        -119.73281860351562,
        -85.55616760253906
      ],
      "type": "VEC3"
    },
    {
      "bufferView": 11,
      "componentType": 5126,
      "count": 1792,
      "max": [
        0.9989436864852905,
        1,
        0.9992402195930481
      ],
      "min": [
        -0.998955488204956,
        -0.9999980330467224,
        -0.9997304081916809
      ],
      "type": "VEC3"
    },
    {
      "bufferView": 12,
      "componentType": 5125,
      "count": 2688,
      "max": [
        1791
      ],
      "min": [
        0
      ],
      "type": "SCALAR"
    }
  ],
  "meshes": [
    {
      "primitives": [
        {
          "mode": 4,
          "attributes": {
            "POSITION": 0,
            "NORMAL": 1,
            "TEXCOORD_0": 2
          },
          "extras": {
            "shape": {
              "points": [
                -50,
                50,
                -50,
                50,
                -50,
                50,
                0,
                50,
                50,
                50,
                50,
                50,
                50,
                0,
                50,
                -50,
                50,
                -50,
                50,
                -50,
                0,
                -50,
                -50,
                -50,
                -50,
                -50,
                -50,
                0
              ],
              "shapeHoles": [],
              "isClosed": true,
              "roundness": 0
            },
            "parameters": {
              "width": 100,
              "depth": 0,
              "cornerRadius": [
                0,
                0,
                0,
                0
              ],
              "cornerType": 1,
              "extrudeBevelSize": 0,
              "extrudeBevelSegments": 1,
              "height": 100,
              "type": "RectangleGeometry"
            },
            "ui": {
              "enabledIndieCorners": false
            },
            "type": "RectangleGeometry"
          },
          "indices": 3
        }
      ]
    },
    {
      "primitives": [
        {
          "mode": 4,
          "attributes": {
            "POSITION": 4,
            "NORMAL": 5
          },
          "extras": {
            "type": "SubdivGeometry",
            "parameters": {
              "width": 29,
              "height": 28.079998016357422,
              "depth": 11.128273010253906
            }
          },
          "indices": 6
        }
      ]
    },
    {
      "primitives": [
        {
          "mode": 4,
          "attributes": {
            "POSITION": 7,
            "NORMAL": 8
          },
          "extras": {
            "type": "SubdivGeometry",
            "parameters": {
              "width": 95.01972961425781,
              "height": 38,
              "depth": 22.2428035736084
            }
          },
          "indices": 9
        }
      ]
    },
    {
      "primitives": [
        {
          "mode": 4,
          "attributes": {
            "POSITION": 10,
            "NORMAL": 11
          },
          "extras": {
            "type": "SubdivGeometry",
            "parameters": {
              "width": 279.6076965332031,
              "height": 249.28128814697266,
              "depth": 156.2208480834961
            }
          },
          "indices": 12
        }
      ]
    }
  ],
  "extensions": {
    "KHR_lights_punctual": {
      "lights": [
        {
          "name": "Directional Light",
          "color": [
            1,
            1,
            1
          ],
          "intensity": 0.7,
          "type": "directional"
        }
      ]
    }
  },
  "cameras": [
    {
      "type": "orthographic",
      "orthographic": {
        "xmag": 6.402007161939453,
        "ymag": 9.281251833733984,
        "zfar": 100000,
        "znear": 0
      }
    }
  ],
  "extensionsUsed": [
    "KHR_lights_punctual"
  ]
}